<svg width="29" height="28" viewBox="0 0 29 28" fill="none" xmlns="http://www.w3.org/2000/svg">
<g clip-path="url(#clip0_6513_191287)">
<path d="M14.5 0C22.2328 0 28.5 6.26719 28.5 14C28.5 21.7328 22.2328 28 14.5 28C6.76719 28 0.5 21.7328 0.5 14C0.5 6.26719 6.76719 0 14.5 0Z" fill="#0052FF"/>
<path d="M14.5027 18.9219C11.7848 18.9219 9.58086 16.7207 9.58086 14C9.58086 11.2793 11.7848 9.07812 14.5027 9.07812C16.9391 9.07812 18.9625 10.8555 19.3508 13.1797H24.3082C23.8898 8.12656 19.6598 4.15625 14.5 4.15625C9.06406 4.15625 4.65625 8.56406 4.65625 14C4.65625 19.4359 9.06406 23.8438 14.5 23.8438C19.6598 23.8438 23.8898 19.8734 24.3082 14.8203H19.348C18.957 17.1445 16.9391 18.9219 14.5027 18.9219Z" fill="white"/>
</g>
<defs>
<clipPath id="clip0_6513_191287">
<rect width="28" height="28" fill="white" transform="translate(0.5)"/>
</clipPath>
</defs>
</svg>
