<svg width="28" height="28" viewBox="0 0 28 28" fill="none" xmlns="http://www.w3.org/2000/svg">
<path d="M14 28C21.732 28 28 21.732 28 14C28 6.26801 21.732 0 14 0C6.26801 0 0 6.26801 0 14C0 21.732 6.26801 28 14 28Z" fill="url(#paint0_linear_6530_191422)"/>
<path d="M24.0222 14.1709H21.555C21.5586 11.7608 20.61 9.44691 18.9157 7.73288C17.2215 6.01885 14.9188 5.04346 12.5088 5.01902C10.0989 4.99459 7.77686 5.92311 6.04822 7.60244C4.31957 9.28177 3.32426 11.5759 3.27895 13.9856C3.17656 19.0938 7.99221 23.5324 13.115 23.5324H13.7651C18.2866 23.5324 24.3472 20.0055 25.2947 15.7067C25.3326 15.5193 25.328 15.3258 25.2813 15.1403C25.2347 14.9549 25.1472 14.7822 25.0252 14.6349C24.9032 14.4877 24.7498 14.3696 24.5762 14.2893C24.4027 14.209 24.2134 14.1685 24.0222 14.1709ZM8.7447 14.3951C8.7447 14.7206 8.61542 15.0327 8.3853 15.2628C8.15518 15.4929 7.84307 15.6222 7.51763 15.6222C7.19219 15.6222 6.88008 15.4929 6.64996 15.2628C6.41984 15.0327 6.29056 14.7206 6.29056 14.3951V12.4172C6.29056 12.0918 6.41984 11.7797 6.64996 11.5495C6.88008 11.3194 7.19219 11.1901 7.51763 11.1901C7.84307 11.1901 8.15518 11.3194 8.3853 11.5495C8.61542 11.7797 8.7447 12.0918 8.7447 12.4172V14.3951ZM13.0061 14.3951C13.0061 14.7206 12.8769 15.0327 12.6467 15.2628C12.4166 15.4929 12.1045 15.6222 11.7791 15.6222C11.4536 15.6222 11.1415 15.4929 10.9114 15.2628C10.6813 15.0327 10.552 14.7206 10.552 14.3951V12.4172C10.552 12.0918 10.6813 11.7797 10.9114 11.5495C11.1415 11.3194 11.4536 11.1901 11.7791 11.1901C12.1045 11.1901 12.4166 11.3194 12.6467 11.5495C12.8769 11.7797 13.0061 12.0918 13.0061 12.4172V14.3951Z" fill="url(#paint1_linear_6530_191422)"/>
<defs>
<linearGradient id="paint0_linear_6530_191422" x1="14" y1="0" x2="14" y2="28" gradientUnits="userSpaceOnUse">
<stop stop-color="#534BB1"/>
<stop offset="1" stop-color="#551BF9"/>
</linearGradient>
<linearGradient id="paint1_linear_6530_191422" x1="14.2982" y1="5.06452" x2="14.2982" y2="23.5324" gradientUnits="userSpaceOnUse">
<stop stop-color="white"/>
<stop offset="1" stop-color="white" stop-opacity="0.82"/>
</linearGradient>
</defs>
</svg>
