<svg width="29" height="28" viewBox="0 0 29 28" fill="none" xmlns="http://www.w3.org/2000/svg">
<path fill-rule="evenodd" clip-rule="evenodd" d="M14.5 0C22.2328 0 28.5 6.26719 28.5 14C28.5 21.7328 22.2328 28 14.5 28C6.76719 28 0.5 21.7328 0.5 14C0.5 6.26719 6.76719 0 14.5 0Z" fill="url(#paint0_radial_6513_191281)"/>
<path d="M9.39648 10.8116C12.2129 8.06084 16.7848 8.06084 19.6012 10.8116L19.9402 11.1452C20.0824 11.2819 20.0824 11.5062 19.9402 11.6429L18.7809 12.7749C18.7098 12.846 18.5949 12.846 18.5238 12.7749L18.059 12.321C16.0902 10.4015 12.9074 10.4015 10.9387 12.321L10.441 12.8077C10.3699 12.8788 10.2551 12.8788 10.184 12.8077L9.02461 11.6757C8.88242 11.539 8.88242 11.3147 9.02461 11.178L9.39648 10.8116ZM22.002 13.1522L23.0355 14.1585C23.1777 14.2952 23.1777 14.5194 23.0355 14.6562L18.3816 19.2007C18.2395 19.3374 18.0098 19.3374 17.873 19.2007L14.5699 15.9741C14.5371 15.9413 14.477 15.9413 14.4441 15.9741L11.141 19.2007C10.9988 19.3374 10.7691 19.3374 10.6324 19.2007L5.96211 14.6562C5.81992 14.5194 5.81992 14.2952 5.96211 14.1585L6.9957 13.1522C7.13789 13.0155 7.36758 13.0155 7.5043 13.1522L10.8074 16.3788C10.8402 16.4116 10.9004 16.4116 10.9332 16.3788L14.2363 13.1522C14.3785 13.0155 14.6082 13.0155 14.7449 13.1522L18.048 16.3788C18.0809 16.4116 18.141 16.4116 18.1738 16.3788L21.477 13.1522C21.6301 13.0155 21.8598 13.0155 22.002 13.1522Z" fill="white"/>
<defs>
<radialGradient id="paint0_radial_6513_191281" cx="0" cy="0" r="1" gradientUnits="userSpaceOnUse" gradientTransform="translate(0.500087 14.0004) scale(28)">
<stop stop-color="#5D9DF6"/>
<stop offset="1" stop-color="#006FFF"/>
</radialGradient>
</defs>
</svg>
